<svg width="184" height="75" viewBox="0 0 184 75" fill="none" xmlns="http://www.w3.org/2000/svg">
<path d="M10.6011 22.4561H16.1136L26.3906 53.1461H20.7993L18.2005 45.4952H8.43546L5.87606 53.1461H0.28476L10.6011 22.4561ZM17.2162 41.3023L13.3574 28.6373L9.34109 41.3023H17.2162Z" fill="white"/>
<path d="M32.3707 22.4561L39.3008 33.7811L46.1915 22.4561H52.0978L42.4115 38.0172L51.7828 53.1461H45.8765L39.3008 42.2533L32.6857 53.1461H26.7401L36.1114 38.0172L26.4251 22.4561H32.3707Z" fill="white"/>
<path d="M54.9125 53.1461V22.4561H60.3463V53.1461H54.9125Z" fill="#EC7979"/>
<path d="M87.0874 27.6863H78.1492V53.1461H72.7548V27.6863H63.8166V22.4561H87.0874V27.6863Z" fill="#EC7979"/>
</svg>
